<?xml version="1.0" encoding="UTF-8" standalone="no"?>
<!DOCTYPE svg PUBLIC "-//W3C//DTD SVG 1.1//EN"
 "http://www.w3.org/Graphics/SVG/1.1/DTD/svg11.dtd">
<!-- Generated by graphviz version 2.48.0 (20210717.1556)
 -->
<!-- Title: SmaliWeaver_join_point_hierarchy_join_point_hierarchy Pages: 1 -->
<svg width="561pt" height="674pt"
 viewBox="0.00 0.00 561.00 674.00" xmlns="http://www.w3.org/2000/svg" xmlns:xlink="http://www.w3.org/1999/xlink">
<g id="graph0" class="graph" transform="scale(1 1) rotate(0) translate(4 670)">
<title>SmaliWeaver_join_point_hierarchy_join_point_hierarchy</title>
<polygon fill="white" stroke="transparent" points="-4,4 -4,-670 557,-670 557,4 -4,4"/>
<!-- arrayType -->
<g id="node1" class="node">
<title>arrayType</title>
<polygon fill="#b2dfee" stroke="#b2dfee" points="546,-426 488,-426 488,-407 546,-407 546,-426"/>
<text text-anchor="middle" x="517" y="-414" font-family="Times New Roman,serif" font-size="10.00">arrayType</text>
</g>
<!-- typeDescriptor -->
<g id="node2" class="node">
<title>typeDescriptor</title>
<polygon fill="#b2dfee" stroke="#b2dfee" points="429,-389 352,-389 352,-370 429,-370 429,-389"/>
<text text-anchor="middle" x="390.5" y="-377" font-family="Times New Roman,serif" font-size="10.00">typeDescriptor</text>
</g>
<!-- arrayType&#45;&gt;typeDescriptor -->
<g id="edge1" class="edge">
<title>arrayType&#45;&gt;typeDescriptor</title>
<path fill="none" stroke="black" d="M487.75,-408.1C471.65,-403.32 451.17,-397.23 433.24,-391.91"/>
<polygon fill="black" stroke="black" points="434.17,-388.53 423.59,-389.04 432.18,-395.24 434.17,-388.53"/>
</g>
<!-- literal -->
<g id="node18" class="node">
<title>literal</title>
<polygon fill="#b2dfee" stroke="#b2dfee" points="276.5,-352 222.5,-352 222.5,-333 276.5,-333 276.5,-352"/>
<text text-anchor="middle" x="249.5" y="-340" font-family="Times New Roman,serif" font-size="10.00">literal</text>
</g>
<!-- typeDescriptor&#45;&gt;literal -->
<g id="edge36" class="edge">
<title>typeDescriptor&#45;&gt;literal</title>
<path fill="none" stroke="black" d="M353.7,-369.97C332.97,-364.45 306.95,-357.52 286.22,-352.01"/>
<polygon fill="black" stroke="black" points="287.08,-348.62 276.52,-349.43 285.28,-355.38 287.08,-348.62"/>
</g>
<!-- catch -->
<g id="node3" class="node">
<title>catch</title>
<polygon fill="#b2dfee" stroke="#b2dfee" points="276.5,-611 222.5,-611 222.5,-592 276.5,-592 276.5,-611"/>
<text text-anchor="middle" x="249.5" y="-599" font-family="Times New Roman,serif" font-size="10.00">catch</text>
</g>
<!-- statement -->
<g id="node4" class="node">
<title>statement</title>
<polygon fill="#b2dfee" stroke="#b2dfee" points="154.5,-518 98.5,-518 98.5,-499 154.5,-499 154.5,-518"/>
<text text-anchor="middle" x="126.5" y="-506" font-family="Times New Roman,serif" font-size="10.00">statement</text>
</g>
<!-- catch&#45;&gt;statement -->
<g id="edge2" class="edge">
<title>catch&#45;&gt;statement</title>
<path fill="none" stroke="black" d="M222.25,-594.47C214.41,-591.72 206.04,-588.1 199,-583.5 175.37,-568.05 153.84,-543.36 140.72,-526.56"/>
<polygon fill="black" stroke="black" points="143.17,-524 134.33,-518.15 137.59,-528.23 143.17,-524"/>
</g>
<!-- joinpoint -->
<g id="node6" class="node">
<title>joinpoint</title>
<polygon fill="#b2dfee" stroke="#b2dfee" points="54,-167 0,-167 0,-148 54,-148 54,-167"/>
<text text-anchor="middle" x="27" y="-155" font-family="Times New Roman,serif" font-size="10.00">joinpoint</text>
</g>
<!-- statement&#45;&gt;joinpoint -->
<g id="edge33" class="edge">
<title>statement&#45;&gt;joinpoint</title>
<path fill="none" stroke="black" d="M122.79,-498.75C109.53,-451.02 51.41,-241.77 33.36,-176.81"/>
<polygon fill="black" stroke="black" points="36.7,-175.74 30.65,-167.04 29.95,-177.61 36.7,-175.74"/>
</g>
<!-- classNode -->
<g id="node5" class="node">
<title>classNode</title>
<polygon fill="#b2dfee" stroke="#b2dfee" points="156,-241 97,-241 97,-222 156,-222 156,-241"/>
<text text-anchor="middle" x="126.5" y="-229" font-family="Times New Roman,serif" font-size="10.00">classNode</text>
</g>
<!-- classNode&#45;&gt;joinpoint -->
<g id="edge3" class="edge">
<title>classNode&#45;&gt;joinpoint</title>
<path fill="none" stroke="black" d="M104.32,-221.92C99.47,-219.42 94.44,-216.55 90,-213.5 73.13,-201.91 56.02,-186.09 44.06,-174.21"/>
<polygon fill="black" stroke="black" points="46.52,-171.72 37,-167.07 41.54,-176.64 46.52,-171.72"/>
</g>
<!-- classType -->
<g id="node7" class="node">
<title>classType</title>
<polygon fill="#b2dfee" stroke="#b2dfee" points="546,-389 488,-389 488,-370 546,-370 546,-389"/>
<text text-anchor="middle" x="517" y="-377" font-family="Times New Roman,serif" font-size="10.00">classType</text>
</g>
<!-- classType&#45;&gt;typeDescriptor -->
<g id="edge4" class="edge">
<title>classType&#45;&gt;typeDescriptor</title>
<path fill="none" stroke="black" d="M487.75,-379.5C473.51,-379.5 455.84,-379.5 439.54,-379.5"/>
<polygon fill="black" stroke="black" points="439.08,-376 429.08,-379.5 439.08,-383 439.08,-376"/>
</g>
<!-- expression -->
<g id="node8" class="node">
<title>expression</title>
<polygon fill="#b2dfee" stroke="#b2dfee" points="156,-278 97,-278 97,-259 156,-259 156,-278"/>
<text text-anchor="middle" x="126.5" y="-266" font-family="Times New Roman,serif" font-size="10.00">expression</text>
</g>
<!-- expression&#45;&gt;joinpoint -->
<g id="edge5" class="edge">
<title>expression&#45;&gt;joinpoint</title>
<path fill="none" stroke="black" d="M102.24,-258.89C97.91,-256.51 93.62,-253.71 90,-250.5 66.04,-229.23 47.2,-196.71 36.84,-176.3"/>
<polygon fill="black" stroke="black" points="39.87,-174.55 32.33,-167.11 33.59,-177.63 39.87,-174.55"/>
</g>
<!-- fieldNode -->
<g id="node9" class="node">
<title>fieldNode</title>
<polygon fill="#b2dfee" stroke="#b2dfee" points="154.5,-204 98.5,-204 98.5,-185 154.5,-185 154.5,-204"/>
<text text-anchor="middle" x="126.5" y="-192" font-family="Times New Roman,serif" font-size="10.00">fieldNode</text>
</g>
<!-- fieldNode&#45;&gt;joinpoint -->
<g id="edge6" class="edge">
<title>fieldNode&#45;&gt;joinpoint</title>
<path fill="none" stroke="black" d="M100.39,-184.97C88.99,-180.65 75.32,-175.46 62.94,-170.76"/>
<polygon fill="black" stroke="black" points="63.95,-167.4 53.36,-167.12 61.47,-173.95 63.95,-167.4"/>
</g>
<!-- fieldReference -->
<g id="node10" class="node">
<title>fieldReference</title>
<polygon fill="#b2dfee" stroke="#b2dfee" points="286.5,-389 212.5,-389 212.5,-370 286.5,-370 286.5,-389"/>
<text text-anchor="middle" x="249.5" y="-377" font-family="Times New Roman,serif" font-size="10.00">fieldReference</text>
</g>
<!-- fieldReference&#45;&gt;expression -->
<g id="edge7" class="edge">
<title>fieldReference&#45;&gt;expression</title>
<path fill="none" stroke="black" d="M214.18,-369.93C208.84,-367.63 203.57,-364.85 199,-361.5 171.48,-341.35 149.37,-307.76 137.36,-286.94"/>
<polygon fill="black" stroke="black" points="140.37,-285.14 132.44,-278.11 134.26,-288.55 140.37,-285.14"/>
</g>
<!-- goto -->
<g id="node11" class="node">
<title>goto</title>
<polygon fill="#b2dfee" stroke="#b2dfee" points="417.5,-555 363.5,-555 363.5,-536 417.5,-536 417.5,-555"/>
<text text-anchor="middle" x="390.5" y="-543" font-family="Times New Roman,serif" font-size="10.00">goto</text>
</g>
<!-- instruction -->
<g id="node12" class="node">
<title>instruction</title>
<polygon fill="#b2dfee" stroke="#b2dfee" points="279.5,-574 219.5,-574 219.5,-555 279.5,-555 279.5,-574"/>
<text text-anchor="middle" x="249.5" y="-562" font-family="Times New Roman,serif" font-size="10.00">instruction</text>
</g>
<!-- goto&#45;&gt;instruction -->
<g id="edge8" class="edge">
<title>goto&#45;&gt;instruction</title>
<path fill="none" stroke="black" d="M363.36,-549.07C342.67,-551.9 313.44,-555.9 289.92,-559.11"/>
<polygon fill="black" stroke="black" points="289.33,-555.66 279.9,-560.48 290.28,-562.6 289.33,-555.66"/>
</g>
<!-- instruction&#45;&gt;statement -->
<g id="edge11" class="edge">
<title>instruction&#45;&gt;statement</title>
<path fill="none" stroke="black" d="M220.22,-554.99C213.21,-552.42 205.77,-549.51 199,-546.5 183.24,-539.49 166.17,-530.47 152.66,-522.98"/>
<polygon fill="black" stroke="black" points="154.36,-519.92 143.93,-518.08 150.94,-526.03 154.36,-519.92"/>
</g>
<!-- ifComparison -->
<g id="node13" class="node">
<title>ifComparison</title>
<polygon fill="#b2dfee" stroke="#b2dfee" points="425.5,-518 355.5,-518 355.5,-499 425.5,-499 425.5,-518"/>
<text text-anchor="middle" x="390.5" y="-506" font-family="Times New Roman,serif" font-size="10.00">ifComparison</text>
</g>
<!-- ifComparison&#45;&gt;instruction -->
<g id="edge9" class="edge">
<title>ifComparison&#45;&gt;instruction</title>
<path fill="none" stroke="black" d="M360.33,-518C352.35,-520.83 343.76,-524.09 336,-527.5 319.43,-534.77 316.54,-539.17 300,-546.5 296.19,-548.19 292.17,-549.85 288.13,-551.43"/>
<polygon fill="black" stroke="black" points="286.89,-548.16 278.78,-554.97 289.37,-554.7 286.89,-548.16"/>
</g>
<!-- ifComparisonWithZero -->
<g id="node14" class="node">
<title>ifComparisonWithZero</title>
<polygon fill="#b2dfee" stroke="#b2dfee" points="445,-481 336,-481 336,-462 445,-462 445,-481"/>
<text text-anchor="middle" x="390.5" y="-469" font-family="Times New Roman,serif" font-size="10.00">ifComparisonWithZero</text>
</g>
<!-- ifComparisonWithZero&#45;&gt;instruction -->
<g id="edge10" class="edge">
<title>ifComparisonWithZero&#45;&gt;instruction</title>
<path fill="none" stroke="black" d="M352.42,-481.04C346.58,-483.53 340.87,-486.64 336,-490.5 312.81,-508.88 323.12,-528.03 300,-546.5 296.66,-549.16 292.9,-551.46 288.97,-553.42"/>
<polygon fill="black" stroke="black" points="287.44,-550.27 279.64,-557.44 290.21,-556.7 287.44,-550.27"/>
</g>
<!-- label -->
<g id="node15" class="node">
<title>label</title>
<polygon fill="#b2dfee" stroke="#b2dfee" points="276.5,-537 222.5,-537 222.5,-518 276.5,-518 276.5,-537"/>
<text text-anchor="middle" x="249.5" y="-525" font-family="Times New Roman,serif" font-size="10.00">label</text>
</g>
<!-- label&#45;&gt;statement -->
<g id="edge12" class="edge">
<title>label&#45;&gt;statement</title>
<path fill="none" stroke="black" d="M222.24,-523.38C205.35,-520.73 183.16,-517.24 164.49,-514.31"/>
<polygon fill="black" stroke="black" points="164.96,-510.84 154.54,-512.75 163.88,-517.76 164.96,-510.84"/>
</g>
<!-- labelReference -->
<g id="node16" class="node">
<title>labelReference</title>
<polygon fill="#b2dfee" stroke="#b2dfee" points="287,-315 212,-315 212,-296 287,-296 287,-315"/>
<text text-anchor="middle" x="249.5" y="-303" font-family="Times New Roman,serif" font-size="10.00">labelReference</text>
</g>
<!-- labelReference&#45;&gt;expression -->
<g id="edge13" class="edge">
<title>labelReference&#45;&gt;expression</title>
<path fill="none" stroke="black" d="M217.34,-295.97C201.68,-291.18 182.57,-285.34 166,-280.27"/>
<polygon fill="black" stroke="black" points="166.65,-276.81 156.07,-277.24 164.61,-283.51 166.65,-276.81"/>
</g>
<!-- lineDirective -->
<g id="node17" class="node">
<title>lineDirective</title>
<polygon fill="#b2dfee" stroke="#b2dfee" points="283,-500 216,-500 216,-481 283,-481 283,-500"/>
<text text-anchor="middle" x="249.5" y="-488" font-family="Times New Roman,serif" font-size="10.00">lineDirective</text>
</g>
<!-- lineDirective&#45;&gt;statement -->
<g id="edge14" class="edge">
<title>lineDirective&#45;&gt;statement</title>
<path fill="none" stroke="black" d="M215.76,-495.37C200.02,-497.71 181.1,-500.53 164.81,-502.95"/>
<polygon fill="black" stroke="black" points="163.93,-499.54 154.55,-504.48 164.96,-506.47 163.93,-499.54"/>
</g>
<!-- literal&#45;&gt;expression -->
<g id="edge15" class="edge">
<title>literal&#45;&gt;expression</title>
<path fill="none" stroke="black" d="M222.39,-334.74C214.63,-331.98 206.28,-328.54 199,-324.5 179.36,-313.6 159.44,-297.5 145.63,-285.35"/>
<polygon fill="black" stroke="black" points="147.66,-282.46 137.88,-278.38 142.98,-287.67 147.66,-282.46"/>
</g>
<!-- manifest -->
<g id="node19" class="node">
<title>manifest</title>
<polygon fill="#b2dfee" stroke="#b2dfee" points="153.5,-167 99.5,-167 99.5,-148 153.5,-148 153.5,-167"/>
<text text-anchor="middle" x="126.5" y="-155" font-family="Times New Roman,serif" font-size="10.00">manifest</text>
</g>
<!-- manifest&#45;&gt;joinpoint -->
<g id="edge16" class="edge">
<title>manifest&#45;&gt;joinpoint</title>
<path fill="none" stroke="black" d="M99.37,-157.5C88.66,-157.5 76.08,-157.5 64.49,-157.5"/>
<polygon fill="black" stroke="black" points="64.2,-154 54.2,-157.5 64.2,-161 64.2,-154"/>
</g>
<!-- methodNode -->
<g id="node20" class="node">
<title>methodNode</title>
<polygon fill="#b2dfee" stroke="#b2dfee" points="160.5,-130 92.5,-130 92.5,-111 160.5,-111 160.5,-130"/>
<text text-anchor="middle" x="126.5" y="-118" font-family="Times New Roman,serif" font-size="10.00">methodNode</text>
</g>
<!-- methodNode&#45;&gt;joinpoint -->
<g id="edge17" class="edge">
<title>methodNode&#45;&gt;joinpoint</title>
<path fill="none" stroke="black" d="M100.39,-130.03C88.99,-134.35 75.32,-139.54 62.94,-144.24"/>
<polygon fill="black" stroke="black" points="61.47,-141.05 53.36,-147.88 63.95,-147.6 61.47,-141.05"/>
</g>
<!-- methodPrototype -->
<g id="node21" class="node">
<title>methodPrototype</title>
<polygon fill="#b2dfee" stroke="#b2dfee" points="433.5,-352 347.5,-352 347.5,-333 433.5,-333 433.5,-352"/>
<text text-anchor="middle" x="390.5" y="-340" font-family="Times New Roman,serif" font-size="10.00">methodPrototype</text>
</g>
<!-- methodPrototype&#45;&gt;literal -->
<g id="edge18" class="edge">
<title>methodPrototype&#45;&gt;literal</title>
<path fill="none" stroke="black" d="M347.42,-342.5C328.09,-342.5 305.4,-342.5 286.83,-342.5"/>
<polygon fill="black" stroke="black" points="286.71,-339 276.71,-342.5 286.71,-346 286.71,-339"/>
</g>
<!-- methodReference -->
<g id="node22" class="node">
<title>methodReference</title>
<polygon fill="#b2dfee" stroke="#b2dfee" points="292.5,-278 206.5,-278 206.5,-259 292.5,-259 292.5,-278"/>
<text text-anchor="middle" x="249.5" y="-266" font-family="Times New Roman,serif" font-size="10.00">methodReference</text>
</g>
<!-- methodReference&#45;&gt;expression -->
<g id="edge19" class="edge">
<title>methodReference&#45;&gt;expression</title>
<path fill="none" stroke="black" d="M206.18,-268.5C193.3,-268.5 179.2,-268.5 166.54,-268.5"/>
<polygon fill="black" stroke="black" points="166.3,-265 156.3,-268.5 166.3,-272 166.3,-265"/>
</g>
<!-- packedSwitch -->
<g id="node23" class="node">
<title>packedSwitch</title>
<polygon fill="#b2dfee" stroke="#b2dfee" points="285.5,-463 213.5,-463 213.5,-444 285.5,-444 285.5,-463"/>
<text text-anchor="middle" x="249.5" y="-451" font-family="Times New Roman,serif" font-size="10.00">packedSwitch</text>
</g>
<!-- packedSwitch&#45;&gt;statement -->
<g id="edge20" class="edge">
<title>packedSwitch&#45;&gt;statement</title>
<path fill="none" stroke="black" d="M222.1,-463.07C214.57,-465.95 206.41,-469.22 199,-472.5 183.97,-479.15 167.56,-487.34 154.26,-494.23"/>
<polygon fill="black" stroke="black" points="152.43,-491.24 145.19,-498.97 155.67,-497.44 152.43,-491.24"/>
</g>
<!-- placeholder -->
<g id="node24" class="node">
<title>placeholder</title>
<polygon fill="#b2dfee" stroke="#b2dfee" points="158,-93 95,-93 95,-74 158,-74 158,-93"/>
<text text-anchor="middle" x="126.5" y="-81" font-family="Times New Roman,serif" font-size="10.00">placeholder</text>
</g>
<!-- placeholder&#45;&gt;joinpoint -->
<g id="edge21" class="edge">
<title>placeholder&#45;&gt;joinpoint</title>
<path fill="none" stroke="black" d="M104.32,-93.08C99.47,-95.58 94.44,-98.45 90,-101.5 73.13,-113.09 56.02,-128.91 44.06,-140.79"/>
<polygon fill="black" stroke="black" points="41.54,-138.36 37,-147.93 46.52,-143.28 41.54,-138.36"/>
</g>
<!-- primitiveLiteral -->
<g id="node25" class="node">
<title>primitiveLiteral</title>
<polygon fill="#b2dfee" stroke="#b2dfee" points="428.5,-315 352.5,-315 352.5,-296 428.5,-296 428.5,-315"/>
<text text-anchor="middle" x="390.5" y="-303" font-family="Times New Roman,serif" font-size="10.00">primitiveLiteral</text>
</g>
<!-- primitiveLiteral&#45;&gt;literal -->
<g id="edge22" class="edge">
<title>primitiveLiteral&#45;&gt;literal</title>
<path fill="none" stroke="black" d="M353.7,-315.03C332.97,-320.55 306.95,-327.48 286.22,-332.99"/>
<polygon fill="black" stroke="black" points="285.28,-329.62 276.52,-335.57 287.08,-336.38 285.28,-329.62"/>
</g>
<!-- primitiveType -->
<g id="node26" class="node">
<title>primitiveType</title>
<polygon fill="#b2dfee" stroke="#b2dfee" points="553,-352 481,-352 481,-333 553,-333 553,-352"/>
<text text-anchor="middle" x="517" y="-340" font-family="Times New Roman,serif" font-size="10.00">primitiveType</text>
</g>
<!-- primitiveType&#45;&gt;typeDescriptor -->
<g id="edge23" class="edge">
<title>primitiveType&#45;&gt;typeDescriptor</title>
<path fill="none" stroke="black" d="M483.94,-352.03C468.66,-356.57 450.19,-362.06 433.79,-366.93"/>
<polygon fill="black" stroke="black" points="432.47,-363.67 423.89,-369.88 434.47,-370.38 432.47,-363.67"/>
</g>
<!-- program -->
<g id="node27" class="node">
<title>program</title>
<polygon fill="#b2dfee" stroke="#b2dfee" points="153.5,-56 99.5,-56 99.5,-37 153.5,-37 153.5,-56"/>
<text text-anchor="middle" x="126.5" y="-44" font-family="Times New Roman,serif" font-size="10.00">program</text>
</g>
<!-- program&#45;&gt;joinpoint -->
<g id="edge24" class="edge">
<title>program&#45;&gt;joinpoint</title>
<path fill="none" stroke="black" d="M102.24,-56.11C97.91,-58.49 93.62,-61.29 90,-64.5 66.04,-85.77 47.2,-118.29 36.84,-138.7"/>
<polygon fill="black" stroke="black" points="33.59,-137.37 32.33,-147.89 39.87,-140.45 33.59,-137.37"/>
</g>
<!-- registerList -->
<g id="node28" class="node">
<title>registerList</title>
<polygon fill="#b2dfee" stroke="#b2dfee" points="280.5,-241 218.5,-241 218.5,-222 280.5,-222 280.5,-241"/>
<text text-anchor="middle" x="249.5" y="-229" font-family="Times New Roman,serif" font-size="10.00">registerList</text>
</g>
<!-- registerList&#45;&gt;expression -->
<g id="edge25" class="edge">
<title>registerList&#45;&gt;expression</title>
<path fill="none" stroke="black" d="M218.28,-240.74C202.36,-245.61 182.68,-251.63 165.71,-256.81"/>
<polygon fill="black" stroke="black" points="164.63,-253.49 156.09,-259.76 166.68,-260.18 164.63,-253.49"/>
</g>
<!-- registerRange -->
<g id="node29" class="node">
<title>registerRange</title>
<polygon fill="#b2dfee" stroke="#b2dfee" points="285.5,-204 213.5,-204 213.5,-185 285.5,-185 285.5,-204"/>
<text text-anchor="middle" x="249.5" y="-192" font-family="Times New Roman,serif" font-size="10.00">registerRange</text>
</g>
<!-- registerRange&#45;&gt;expression -->
<g id="edge26" class="edge">
<title>registerRange&#45;&gt;expression</title>
<path fill="none" stroke="black" d="M217.38,-204.08C211.05,-206.67 204.61,-209.8 199,-213.5 179.84,-226.13 181.48,-236.91 163,-250.5 161.41,-251.67 159.74,-252.8 158.02,-253.88"/>
<polygon fill="black" stroke="black" points="156.14,-250.93 149.2,-258.93 159.61,-257 156.14,-250.93"/>
</g>
<!-- registerReference -->
<g id="node30" class="node">
<title>registerReference</title>
<polygon fill="#b2dfee" stroke="#b2dfee" points="292.5,-167 206.5,-167 206.5,-148 292.5,-148 292.5,-167"/>
<text text-anchor="middle" x="249.5" y="-155" font-family="Times New Roman,serif" font-size="10.00">registerReference</text>
</g>
<!-- registerReference&#45;&gt;expression -->
<g id="edge27" class="edge">
<title>registerReference&#45;&gt;expression</title>
<path fill="none" stroke="black" d="M211.77,-167.12C207.14,-169.37 202.73,-172.12 199,-175.5 171.6,-200.32 188.86,-224.07 163,-250.5 162.1,-251.42 161.15,-252.3 160.15,-253.14"/>
<polygon fill="black" stroke="black" points="158.11,-250.3 151.87,-258.86 162.08,-256.06 158.11,-250.3"/>
</g>
<!-- registersDirective -->
<g id="node31" class="node">
<title>registersDirective</title>
<polygon fill="#b2dfee" stroke="#b2dfee" points="293,-426 206,-426 206,-407 293,-407 293,-426"/>
<text text-anchor="middle" x="249.5" y="-414" font-family="Times New Roman,serif" font-size="10.00">registersDirective</text>
</g>
<!-- registersDirective&#45;&gt;statement -->
<g id="edge28" class="edge">
<title>registersDirective&#45;&gt;statement</title>
<path fill="none" stroke="black" d="M217.39,-426.09C211.06,-428.68 204.62,-431.81 199,-435.5 175.98,-450.62 154.58,-474.25 141.31,-490.51"/>
<polygon fill="black" stroke="black" points="138.3,-488.67 134.81,-498.68 143.77,-493.03 138.3,-488.67"/>
</g>
<!-- resourceNode -->
<g id="node32" class="node">
<title>resourceNode</title>
<polygon fill="#b2dfee" stroke="#b2dfee" points="163,-19 90,-19 90,0 163,0 163,-19"/>
<text text-anchor="middle" x="126.5" y="-7" font-family="Times New Roman,serif" font-size="10.00">resourceNode</text>
</g>
<!-- resourceNode&#45;&gt;joinpoint -->
<g id="edge29" class="edge">
<title>resourceNode&#45;&gt;joinpoint</title>
<path fill="none" stroke="black" d="M101.13,-19.13C97.09,-21.46 93.19,-24.24 90,-27.5 58.7,-59.57 40.84,-110.45 32.94,-138.08"/>
<polygon fill="black" stroke="black" points="29.55,-137.19 30.31,-147.76 36.31,-139.03 29.55,-137.19"/>
</g>
<!-- returnStatement -->
<g id="node33" class="node">
<title>returnStatement</title>
<polygon fill="#b2dfee" stroke="#b2dfee" points="430.5,-666 350.5,-666 350.5,-647 430.5,-647 430.5,-666"/>
<text text-anchor="middle" x="390.5" y="-654" font-family="Times New Roman,serif" font-size="10.00">returnStatement</text>
</g>
<!-- returnStatement&#45;&gt;instruction -->
<g id="edge30" class="edge">
<title>returnStatement&#45;&gt;instruction</title>
<path fill="none" stroke="black" d="M350.79,-646.97C345.52,-644.7 340.42,-641.92 336,-638.5 312.88,-620.64 322.74,-601.84 300,-583.5 296.66,-580.8 292.88,-578.46 288.95,-576.42"/>
<polygon fill="black" stroke="black" points="290.17,-573.13 279.62,-572.23 287.31,-579.52 290.17,-573.13"/>
</g>
<!-- sparseSwitch -->
<g id="node34" class="node">
<title>sparseSwitch</title>
<polygon fill="#b2dfee" stroke="#b2dfee" points="284.5,-648 214.5,-648 214.5,-629 284.5,-629 284.5,-648"/>
<text text-anchor="middle" x="249.5" y="-636" font-family="Times New Roman,serif" font-size="10.00">sparseSwitch</text>
</g>
<!-- sparseSwitch&#45;&gt;statement -->
<g id="edge31" class="edge">
<title>sparseSwitch&#45;&gt;statement</title>
<path fill="none" stroke="black" d="M214.44,-629.49C208.94,-627.12 203.57,-624.16 199,-620.5 167.5,-595.25 145.65,-552.18 134.98,-527.46"/>
<polygon fill="black" stroke="black" points="138.16,-525.99 131.1,-518.09 131.7,-528.67 138.16,-525.99"/>
</g>
<!-- sparseSwitchElement -->
<g id="node35" class="node">
<title>sparseSwitchElement</title>
<polygon fill="#b2dfee" stroke="#b2dfee" points="300,-130 199,-130 199,-111 300,-111 300,-130"/>
<text text-anchor="middle" x="249.5" y="-118" font-family="Times New Roman,serif" font-size="10.00">sparseSwitchElement</text>
</g>
<!-- sparseSwitchElement&#45;&gt;expression -->
<g id="edge32" class="edge">
<title>sparseSwitchElement&#45;&gt;expression</title>
<path fill="none" stroke="black" d="M210.58,-130.05C206.3,-132.3 202.3,-135.07 199,-138.5 162.73,-176.16 196.93,-210.72 163,-250.5 162.28,-251.34 161.52,-252.15 160.71,-252.92"/>
<polygon fill="black" stroke="black" points="158.51,-250.19 152.61,-258.99 162.71,-255.79 158.51,-250.19"/>
</g>
<!-- switch -->
<g id="node36" class="node">
<title>switch</title>
<polygon fill="#b2dfee" stroke="#b2dfee" points="417.5,-629 363.5,-629 363.5,-610 417.5,-610 417.5,-629"/>
<text text-anchor="middle" x="390.5" y="-617" font-family="Times New Roman,serif" font-size="10.00">switch</text>
</g>
<!-- switch&#45;&gt;instruction -->
<g id="edge34" class="edge">
<title>switch&#45;&gt;instruction</title>
<path fill="none" stroke="black" d="M363.38,-611.52C354.58,-608.62 344.78,-605.15 336,-601.5 319.48,-594.63 316.37,-590.71 300,-583.5 295.6,-581.56 290.93,-579.62 286.29,-577.76"/>
<polygon fill="black" stroke="black" points="287.48,-574.47 276.9,-574.09 284.93,-580.99 287.48,-574.47"/>
</g>
<!-- throwStatement -->
<g id="node37" class="node">
<title>throwStatement</title>
<polygon fill="#b2dfee" stroke="#b2dfee" points="430.5,-592 350.5,-592 350.5,-573 430.5,-573 430.5,-592"/>
<text text-anchor="middle" x="390.5" y="-580" font-family="Times New Roman,serif" font-size="10.00">throwStatement</text>
</g>
<!-- throwStatement&#45;&gt;instruction -->
<g id="edge35" class="edge">
<title>throwStatement&#45;&gt;instruction</title>
<path fill="none" stroke="black" d="M350.41,-577.44C331.44,-574.98 308.7,-572.04 289.72,-569.58"/>
<polygon fill="black" stroke="black" points="289.97,-566.08 279.6,-568.27 289.07,-573.02 289.97,-566.08"/>
</g>
</g>
</svg>
